<svg width="208" height="208" viewBox="0 0 208 208" fill="none" xmlns="http://www.w3.org/2000/svg">
<g clip-path="url(#clip0_181_63)">
<path d="M198 0H10C4.47715 0 0 4.47715 0 10V198C0 203.523 4.47715 208 10 208H198C203.523 208 208 203.523 208 198V10C208 4.47715 203.523 0 198 0Z" fill="#F6F0D2"/>
<path d="M103.875 38C94.9615 38 86.1353 39.7556 77.9004 43.1667C69.6654 46.5777 62.1829 51.5774 55.8801 57.8801C43.1511 70.6092 36 87.8734 36 105.875C36 135.876 55.4801 161.329 82.4265 170.356C85.8203 170.899 86.9062 168.795 86.9062 166.963V155.492C68.1049 159.564 64.1002 146.396 64.1002 146.396C60.978 138.523 56.5661 136.419 56.5661 136.419C50.3895 132.211 57.0412 132.346 57.0412 132.346C63.8287 132.821 67.4261 139.337 67.4261 139.337C73.3312 149.654 83.3089 146.6 87.1777 144.971C87.7886 140.559 89.5534 137.573 91.4539 135.876C76.3856 134.179 60.5707 128.342 60.5707 102.481C60.5707 94.9471 63.15 88.9063 67.5619 84.0871C66.8831 82.3903 64.5075 75.3313 68.2406 66.1681C68.2406 66.1681 73.9421 64.3355 86.9062 73.0914C92.2684 71.5981 98.1056 70.8515 103.875 70.8515C109.644 70.8515 115.482 71.5981 120.844 73.0914C133.808 64.3355 139.509 66.1681 139.509 66.1681C143.243 75.3313 140.867 82.3903 140.188 84.0871C144.6 88.9063 147.179 94.9471 147.179 102.481C147.179 128.41 131.297 134.111 116.16 135.808C118.604 137.912 120.844 142.052 120.844 148.365V166.963C120.844 168.795 121.93 170.967 125.391 170.356C152.338 161.261 171.75 135.876 171.75 105.875C171.75 96.9615 169.994 88.1353 166.583 79.9004C163.172 71.6654 158.173 64.1829 151.87 57.8801C145.567 51.5774 138.085 46.5777 129.85 43.1667C121.615 39.7556 112.788 38 103.875 38Z" fill="#BC1A1F"/>
</g>
<defs>
<clipPath id="clip0_181_63">
<rect width="208" height="208" fill="white"/>
</clipPath>
</defs>
</svg>
