<svg width="208" height="208" viewBox="0 0 208 208" fill="none" xmlns="http://www.w3.org/2000/svg">
<g clip-path="url(#clip0_181_67)">
<path d="M198 0H10C4.47715 0 0 4.47715 0 10V198C0 203.523 4.47715 208 10 208H198C203.523 208 208 203.523 208 198V10C208 4.47715 203.523 0 198 0Z" fill="#F6F0D2"/>
<path d="M164.667 26C169.264 26 173.673 27.8262 176.923 31.0768C180.174 34.3274 182 38.7362 182 43.3333V164.667C182 169.264 180.174 173.673 176.923 176.923C173.673 180.174 169.264 182 164.667 182H43.3333C38.7362 182 34.3274 180.174 31.0768 176.923C27.8262 173.673 26 169.264 26 164.667V43.3333C26 38.7362 27.8262 34.3274 31.0768 31.0768C34.3274 27.8262 38.7362 26 43.3333 26H164.667ZM160.333 160.333V114.4C160.333 106.907 157.357 99.7204 152.058 94.4219C146.76 89.1233 139.573 86.1467 132.08 86.1467C124.713 86.1467 116.133 90.6533 111.973 97.4133V87.7933H87.7933V160.333H111.973V117.607C111.973 110.933 117.347 105.473 124.02 105.473C127.238 105.473 130.324 106.752 132.6 109.027C134.875 111.303 136.153 114.389 136.153 117.607V160.333H160.333ZM59.6267 74.1867C63.4882 74.1867 67.1916 72.6527 69.9221 69.9221C72.6527 67.1916 74.1867 63.4882 74.1867 59.6267C74.1867 51.5667 67.6867 44.98 59.6267 44.98C55.7421 44.98 52.0167 46.5231 49.2699 49.2699C46.5231 52.0167 44.98 55.7421 44.98 59.6267C44.98 67.6867 51.5667 74.1867 59.6267 74.1867ZM71.6733 160.333V87.7933H47.6667V160.333H71.6733Z" fill="#CFDBE6"/>
</g>
<defs>
<clipPath id="clip0_181_67">
<rect width="208" height="208" fill="white"/>
</clipPath>
</defs>
</svg>
