<svg width="257" height="353" viewBox="0 0 257 353" fill="none" xmlns="http://www.w3.org/2000/svg">
<g clip-path="url(#clip0_313_163)">
<mask id="mask0_313_163" style="mask-type:luminance" maskUnits="userSpaceOnUse" x="0" y="0" width="257" height="353">
<path d="M257 0H0V353H257V0Z" fill="white"/>
</mask>
<g mask="url(#mask0_313_163)">
<path d="M244.346 0H13.0899C10.6801 0 8.72656 1.95357 8.72656 4.36341V348.637C8.72656 351.046 10.6801 353 13.0899 353H244.346C246.756 353 248.71 351.046 248.71 348.637V4.36341C248.71 1.95357 246.756 0 244.346 0Z" fill="#EFC503"/>
<path d="M252.637 0H4.36333C1.95353 0 0 1.95357 0 4.36341V303.693C0 306.103 1.95353 308.057 4.36333 308.057H252.637C255.046 308.057 257 306.103 257 303.693V4.36341C257 1.95357 255.046 0 252.637 0Z" fill="#FCD41A"/>
<path d="M220.348 38.834H33.5976C26.3682 38.834 20.5076 44.6947 20.5076 51.9242V182.827C20.5076 190.056 26.3682 195.917 33.5976 195.917H220.348C227.577 195.917 233.438 190.056 233.438 182.827V51.9242C233.438 44.6947 227.577 38.834 220.348 38.834Z" fill="#106F1C"/>
<path d="M240.856 262.678H133.954V270.096H240.856V262.678Z" fill="#CBA803"/>
<path d="M240.856 257.005H212.93V275.768H240.856V257.005Z" fill="#CBA803"/>
<path d="M240.856 322.456H226.893V341.219H240.856V322.456Z" fill="#CBA803"/>
</g>
</g>
<defs>
<clipPath id="clip0_313_163">
<rect width="257" height="353" fill="white"/>
</clipPath>
</defs>
</svg>
