<svg width="570" height="539" viewBox="0 0 570 539" fill="none" xmlns="http://www.w3.org/2000/svg">
<g clip-path="url(#clip0_313_147)">
<mask id="mask0_313_147" style="mask-type:luminance" maskUnits="userSpaceOnUse" x="0" y="0" width="570" height="539">
<path d="M570 0H0V539H570V0Z" fill="white"/>
</mask>
<g mask="url(#mask0_313_147)">
<path d="M2.834 29.833C2.92586 13.3299 16.3301 0 32.8335 0H537.167C553.67 0 567.074 13.3299 567.166 29.833L569.41 433L569.832 508.833C569.925 525.467 556.466 539 539.833 539H30.1674C13.5336 539 0.0753759 525.467 0.167955 508.833L0.578899 435L2.834 29.833Z" fill="#CFDBE6"/>
<path d="M537.315 0H32.6854C28.9222 0 25.3201 0.556125 22 1.57181C17.3299 3.00049 13.2177 5.33844 10 8.3169C7.86883 10.2896 6.13008 12.5434 4.88156 15C3.9202 16.8916 3.2495 18.9035 2.91408 21C2.75863 21.9717 2.6752 22.9615 2.66823 23.966L0.579956 435C17.2235 435 569.41 433 569.41 433L567.332 23.966C567.32 22.2628 567.089 20.6017 566.659 19C566.091 16.883 565.176 14.8697 563.966 13C562.643 10.9562 560.966 9.08398 559 7.43567C555.948 4.87605 552.199 2.85624 548 1.57164C544.68 0.556062 541.078 0 537.315 0Z" fill="#CFDBE6"/>
<path d="M537.315 0H32.6854C28.9222 0 25.3201 0.556125 22 1.57181C17.3299 3.00049 13.2177 5.33844 10 8.3169C7.86883 10.2896 6.13008 12.5434 4.88156 15C3.9202 16.8916 3.2495 18.9035 2.91408 21C2.75863 21.9717 2.6752 22.9615 2.66823 23.966L0.579956 435C17.2235 435 569.41 433 569.41 433L567.332 23.966C567.32 22.2628 567.089 20.6017 566.659 19C566.091 16.883 565.176 14.8697 563.966 13C562.643 10.9562 560.966 9.08398 559 7.43567C555.948 4.87605 552.199 2.85624 548 1.57164C544.68 0.556062 541.078 0 537.315 0Z" fill="black" fill-opacity="0.04"/>
<path d="M5.71344 435C5.71344 435 -3.47773 21.6337 22 1.57031C17.33 3 13.3436 4.85698 10 8.32031C8.16103 10.0227 6.12833 12.5817 4.88002 15.0003C3.56924 17.5399 3.08417 19.9247 2.91002 21.0003C2.76002 21.9803 2.68002 22.9603 2.67002 23.9703C2.68002 22.9603 0.580017 435 0.580017 435L5.71344 435Z" fill="#F41A78" fill-opacity="0.5"/>
<path d="M77.5 449.578C91.0826 449.578 103.357 453.303 112.222 459.3C121.089 465.298 126.5 473.533 126.5 482.563C126.5 491.594 121.089 499.829 112.222 505.827C103.357 511.824 91.0826 515.549 77.5 515.549C63.9174 515.549 51.6429 511.824 42.7783 505.827C33.9109 499.829 28.5 491.594 28.5 482.563C28.5 473.533 33.9109 465.298 42.7783 459.3C51.6429 453.303 63.9174 449.578 77.5 449.578Z" fill="#B0C5D9" stroke="#B0C5D9"/>
<path d="M502.5 449.578C516.083 449.578 528.357 453.303 537.222 459.3C546.089 465.298 551.5 473.533 551.5 482.563C551.5 491.594 546.089 499.829 537.222 505.827C528.357 511.824 516.083 515.549 502.5 515.549C488.917 515.549 476.643 511.824 467.778 505.827C458.911 499.829 453.5 491.594 453.5 482.563C453.5 473.533 458.911 465.298 467.778 459.3C476.643 453.303 488.917 449.578 502.5 449.578Z" fill="#B0C5D9" stroke="#B0C5D9"/>
<path d="M188 450L401 450.003" stroke="#B0C5D9" stroke-width="20" stroke-linecap="round"/>
<path d="M47.2906 80.4958C47.582 64.1262 61.718 51 79.0558 51H489.944C507.282 51 521.419 64.1262 521.71 80.4959L526.995 377.496C527.294 394.259 512.985 408 495.231 408H73.7699C56.015 408 41.7062 394.259 42.0046 377.496L47.2906 80.4958Z" fill="#106F1C"/>
<path d="M436 474.5C440.694 474.5 444.5 478.306 444.5 483C444.5 487.694 440.694 491.5 436 491.5C431.306 491.5 427.5 487.694 427.5 483C427.5 478.306 431.306 474.5 436 474.5Z" fill="#B0C5D9" stroke="#B0C5D9"/>
<path d="M142 475.5C146.142 475.5 149.5 478.858 149.5 483C149.5 487.142 146.142 490.5 142 490.5C137.858 490.5 134.5 487.142 134.5 483C134.5 478.858 137.858 475.5 142 475.5Z" fill="#B0C5D9" stroke="#B0C5D9"/>
<path d="M162 475.5C166.142 475.5 169.5 478.858 169.5 483C169.5 487.142 166.142 490.5 162 490.5C157.858 490.5 154.5 487.142 154.5 483C154.5 478.858 157.858 475.5 162 475.5Z" fill="#B0C5D9" stroke="#B0C5D9"/>
</g>
<path d="M564.286 433C564.286 433 573.478 21.6328 548 1.56934C552.2 2.86 555.95 4.88 559 7.44C560.839 9.14241 562.722 10.5811 563.97 12.9996C565.5 15.5 566.5 18 566.66 18.9996C566.81 19.9796 567.32 20.9596 567.33 21.9696C567.32 20.9596 569.42 432.999 569.42 432.999L564.286 433Z" fill="#F41A78" fill-opacity="0.5"/>
</g>
<defs>
<clipPath id="clip0_313_147">
<rect width="570" height="539" fill="white"/>
</clipPath>
</defs>
</svg>
